# xmcd
#
# Track frame offsets:
#	150
#	16155
#	33074
#	46979
#	66075
#	87006
#	101129
#	118439
#	135630
#	153891
#	169490
#	187645
#	205094
#	221477
#	235945
#	253896
#	270202
#	288265
#	299449
#	316051
#
# Disc length: 4445
#
# Revision: 1
# Processed by: cddbd v1.5.2PL0 Copyright (c) Steve Scherf et al.
# Submitted via: kJams Lite 1.0b77
#
DISCID=15115b14
DTITLE=Unknown Artist - Top Tunes Guy Country FunPack 3 Disc 2
DYEAR=2001
DGENRE=Country
TTITLE0=Kenny Chesney - No Shoes, No Shirt, No Problem
TTITLE1=Blake Shelton - Ol' Red
TTITLE2=Trick Pony - On a Mission
TTITLE3=Tim McGraw - Red Ragtop
TTITLE4=Kenny Chesney - She Thinks My Tractor's Sexy
TTITLE5=George Strait - She'll Leave You With a Smile
TTITLE6=Keith Urban - Somebody Like You
TTITLE7=Travis Tritt - Strong Enough to Be Your Man
TTITLE8=Blake Shelton - The Baby
TTITLE9=Kenny Chesney - The Good Stuff
TTITLE10=Joe Nichols - The Impossible
TTITLE11=Gary Allan - The One
TTITLE12=Rascal Flatts - These Days
TTITLE13=Andy Griggs - Tonight I Want To Be Your Man
TTITLE14=Tim McGraw - Unbroken
TTITLE15=Toby Keith - Who's Your Daddy
TTITLE16=Alan Jackson - Work in Progress
TTITLE17=Toby Keith - You Ain't Much Fun
TTITLE18=Aaron Lines - You Can't Hide Beautiful
TTITLE19=Kenny Chesney - You Had Me From Hello
EXTD=
EXTT0=
EXTT1=
EXTT2=
EXTT3=
EXTT4=
EXTT5=
EXTT6=
EXTT7=
EXTT8=
EXTT9=
EXTT10=
EXTT11=
EXTT12=
EXTT13=
EXTT14=
EXTT15=
EXTT16=
EXTT17=
EXTT18=
EXTT19=
PLAYORDER=
